<svg xmlns="http://www.w3.org/2000/svg" xmlns:xlink="http://www.w3.org/1999/xlink" xmlns:inkscape="http://www.inkscape.org/namespaces/inkscape" version="1.1" width="229.125" height="91.575" viewBox="0 0 229.125 91.575">
<defs>
<path id="font_1_1" d="M.15527344 .01171875C.15527344 .008300781 .15527344 .0068359377 .15332031 .0048828127 .15185547 .0024414063 .14990235 .0009765625 .14697266 0 .14404297-.0014648438 .14013672-.0024414063 .1352539-.0024414063 .12988281-.0034179688 .122558597-.0034179688 .11425781-.0034179688 .106933597-.0034179688 .100097659-.0034179688 .095214847-.0024414063 .08984375-.0024414063 .0859375-.0014648438 .08251953 0 .07910156 .0009765625 .07763672 .0024414063 .075683597 .0048828127 .07519531 .0068359377 .07421875 .008300781 .07421875 .01171875V.45166017C.07421875 .453125 .07519531 .45507813 .075683597 .45751954 .07763672 .45898438 .07910156 .45996095 .08251953 .46142579 .0859375 .46240235 .08984375 .4633789 .095214847 .46484376 .100097659 .46484376 .106933597 .4658203 .11425781 .46679688 .122558597 .4658203 .12988281 .46484376 .1352539 .46484376 .14013672 .4633789 .14404297 .46240235 .14697266 .46142579 .14990235 .45996095 .15185547 .45898438 .15332031 .45751954 .15527344 .45507813 .15527344 .453125 .15527344 .45166017V.01171875M.1640625 .60009768C.1640625 .5800781 .16113281 .5673828 .15332031 .56103518 .14697266 .55322268 .13330078 .5498047 .11425781 .55078127 .095703128 .5498047 .08251953 .55322268 .075683597 .5600586 .06933594 .56689456 .064941409 .57910159 .064941409 .5991211 .064941409 .6176758 .06933594 .6298828 .075683597 .63671877 .08251953 .6435547 .095703128 .6464844 .115234378 .64746096 .13427735 .6464844 .14746094 .6435547 .15429688 .63671877 .16113281 .6298828 .1640625 .6176758 .1640625 .60009768Z"/>
<path id="font_1_2" d="M.45117188 .01171875C.45117188 .008300781 .45117188 .0068359377 .44921876 .0048828127 .44873048 .0024414063 .44677735 .0009765625 .44335938 0 .44091798-.0014648438 .4375-.0024414063 .4326172-.0024414063 .42871095-.0034179688 .42285157-.0034179688 .41601563-.0034179688 .4091797-.0034179688 .40429688-.0034179688 .39941407-.0024414063 .39453126-.0024414063 .39111329-.0014648438 .3876953 0 .3852539 .0009765625 .38330079 .0024414063 .38183595 .0048828127 .3803711 .0068359377 .37939454 .008300781 .37939454 .01171875V.06982422C.35595704 .043945314 .33251954 .023925782 .3076172 .0107421879 .28271485-.0034179688 .2553711-.010253906 .22509766-.010253906 .19335938-.010253906 .16601563-.0043945314 .14257813 .008300781 .12011719 .020996094 .1015625 .037597658 .087402347 .05908203 .07324219 .080078128 .06347656 .10498047 .056640626 .13427735 .049804689 .16259766 .046875 .19335938 .046875 .2265625 .046875 .2631836 .05078125 .296875 .05908203 .32763673 .06738281 .35742188 .07910156 .38427735 .095214847 .40576173 .111816409 .4267578 .13183594 .44335938 .15527344 .45507813 .17822266 .46679688 .20605469 .47265626 .23583985 .47314454 .2626953 .47265626 .2861328 .46679688 .30664063 .4560547 .32861329 .44433595 .3491211 .42822267 .3701172 .40673829V.66259768C.3701172 .6640625 .37109376 .6660156 .3720703 .66845706 .37353517 .6699219 .375 .671875 .37841798 .67333987 .38183595 .6743164 .38623048 .6748047 .39111329 .67578127 .3959961 .67578127 .40283204 .6767578 .41015626 .6772461 .41845704 .6767578 .42529298 .67578127 .43017579 .67578127 .4350586 .6748047 .43945313 .6743164 .4428711 .67333987 .44628907 .671875 .4477539 .6699219 .44921876 .66845706 .45117188 .6660156 .45117188 .6640625 .45117188 .66259768V.01171875M.3701172 .32080079C.3486328 .34765626 .32763673 .36767579 .30664063 .38232423 .2866211 .3959961 .26513673 .4033203 .24267578 .40429688 .22265625 .4033203 .20605469 .3984375 .19091797 .38916017 .17675781 .37939454 .16503906 .36572267 .15576172 .35009767 .14746094 .3334961 .14111328 .31591798 .13671875 .29589845 .1328125 .2758789 .12988281 .2548828 .12988281 .23486328 .12988281 .21142578 .13183594 .1899414 .1352539 .16894531 .1381836 .14746094 .14501953 .12939453 .15332031 .11328125 .1616211 .09667969 .17333985 .083496097 .18701172 .07324219 .20117188 .06347656 .21826172 .05810547 .23925781 .05908203 .25097657 .05810547 .2607422 .060058595 .2709961 .06347656 .28076173 .06591797 .29101563 .07080078 .30078126 .07763672 .31201173 .083984378 .3227539 .092285159 .33447267 .104003909 .3461914 .114746097 .35791017 .12841797 .3701172 .14501953V.32080079Z"/>
<path id="font_1_3" d="M.44921876 .25097657C.44921876 .23730469 .44677735 .22851563 .4404297 .22314453 .43359376 .21728516 .4267578 .21484375 .41845704 .21582031H.12988281C.12988281 .19091797 .1328125 .16845703 .13769531 .14892578 .14257813 .12939453 .1508789 .111816409 .16259766 .09814453 .1743164 .083984378 .18847656 .07324219 .20654297 .06689453 .22509766 .05810547 .24658203 .05517578 .2734375 .055664064 .2944336 .05517578 .3125 .056640626 .32910157 .060058595 .3461914 .06347656 .36035157 .06689453 .3720703 .071777347 .38330079 .075683597 .3935547 .080078128 .4008789 .083496097 .4086914 .08642578 .41455079 .088378909 .41748048 .08935547 .42041017 .088378909 .42285157 .087402347 .4243164 .08642578 .42626954 .08496094 .42773438 .083496097 .42871095 .08154297 .42919923 .07910156 .43017579 .075683597 .43017579 .072265628 .43115235 .06738281 .43115235 .0625 .43115235 .057617189 .43115235 .052246095 .43115235 .049316408 .43115235 .046875 .43115235 .04345703 .43017579 .040039064 .42919923 .038085939 .42919923 .03515625 .42871095 .033203126 .4267578 .03173828 .42626954 .029296875 .4243164 .02734375 .42285157 .025878907 .42089845 .0234375 .41601563 .020019532 .40673829 .016601563 .3984375 .0126953129 .38671876 .008300781 .3725586 .0048828127 .359375 .0009765625 .34277345-.0014648438 .32421876-.0048828127 .30615235-.008300781 .2861328-.010253906 .26513673-.010253906 .22949219-.010253906 .1977539-.0048828127 .16992188 .0048828127 .14355469 .015136719 .12011719 .029785157 .1015625 .049804689 .083496097 .06933594 .06933594 .09423828 .05908203 .12402344 .049804689 .15429688 .044921876 .18896485 .044921876 .22998047 .044921876 .26660157 .049804689 .30078126 .060058595 .3310547 .06982422 .36083985 .083496097 .3857422 .1015625 .40771485 .12011719 .42822267 .14257813 .44433595 .16845703 .4560547 .1953125 .46679688 .2241211 .47265626 .25585938 .47314454 .29101563 .47265626 .3203125 .46679688 .34423829 .4560547 .36914063 .44433595 .38916017 .43017579 .40429688 .4116211 .42041017 .39257813 .43164063 .37060548 .43847657 .34570313 .44628907 .31982423 .44921876 .29345704 .44921876 .26513673V.25097657M.36865235 .27490235C.3701172 .31689454 .36083985 .3491211 .3408203 .37353517 .32080079 .39648438 .2919922 .4091797 .2524414 .41015626 .23242188 .4091797 .21533203 .40478517 .20019531 .3984375 .1850586 .39013673 .17236328 .3798828 .16259766 .36816407 .15234375 .35595704 .14501953 .34179688 .13916016 .3256836 .13427735 .30908204 .13085938 .2915039 .12988281 .27490235H.36865235Z"/>
<path id="font_1_4" d="M.45263673 .01171875C.45263673 .008300781 .45263673 .0068359377 .45117188 .0048828127 .4501953 .0024414063 .44873048 .0009765625 .4453125 0 .44189454-.0014648438 .4375-.0024414063 .4326172-.0024414063 .42773438-.0034179688 .42089845-.0034179688 .41259767-.0034179688 .40527345-.0034179688 .3984375-.0034179688 .3935547-.0024414063 .38867188-.0024414063 .38427735-.0014648438 .38085938 0 .3779297 .0009765625 .37597657 .0024414063 .37451173 .0048828127 .37353517 .0068359377 .3725586 .008300781 .3725586 .01171875V.26904298C.3725586 .29345704 .37109376 .31347657 .36669923 .32910157 .36328126 .34423829 .35791017 .3564453 .35009767 .36816407 .34277345 .37939454 .33251954 .3876953 .32080079 .39404298 .30908204 .39892579 .29492188 .40234376 .27929688 .4033203 .25927735 .40234376 .23828125 .39501954 .21826172 .38183595 .19824219 .36669923 .17773438 .34570313 .15527344 .31933595V.01171875C.15527344 .008300781 .15527344 .0068359377 .15332031 .0048828127 .15185547 .0024414063 .14990235 .0009765625 .14697266 0 .14404297-.0014648438 .14013672-.0024414063 .1352539-.0024414063 .12988281-.0034179688 .122558597-.0034179688 .11425781-.0034179688 .106933597-.0034179688 .100097659-.0034179688 .095214847-.0024414063 .08984375-.0024414063 .0859375-.0014648438 .08251953 0 .07910156 .0009765625 .07763672 .0024414063 .075683597 .0048828127 .07519531 .0068359377 .07421875 .008300781 .07421875 .01171875V.45166017C.07421875 .453125 .07519531 .45507813 .075683597 .45751954 .07763672 .45898438 .07910156 .4609375 .08154297 .46240235 .08496094 .4633789 .088378909 .46435548 .09326172 .46484376 .09863281 .46484376 .104003909 .4658203 .110839847 .46679688 .11816406 .4658203 .12402344 .46484376 .12939453 .46484376 .13427735 .46435548 .13769531 .4633789 .14013672 .46240235 .14257813 .4609375 .14404297 .45898438 .1459961 .45751954 .14746094 .45507813 .14746094 .453125 .14746094 .45166017V.3935547C.17236328 .41992188 .19677735 .4399414 .22167969 .453125 .24658203 .4658203 .2709961 .47265626 .29589845 .47314454 .3251953 .47265626 .35009767 .46728517 .3701172 .45751954 .39013673 .44726563 .40673829 .43408204 .41845704 .41748048 .43115235 .4008789 .4404297 .38085938 .4453125 .359375 .4501953 .33642579 .45263673 .3100586 .45263673 .27978517V.01171875Z"/>
<path id="font_1_5" d="M.30273438 .043945314C.30273438 .034179689 .30273438 .025878907 .30078126 .020996094 .30029298 .015136719 .29833985 .0107421879 .29492188 .009277344 .29248048 .005859375 .28857423 .0034179688 .2836914 .0014648438 .2783203-.0009765625 .27246095-.0024414063 .26611329-.0043945314 .25927735-.005859375 .2524414-.0068359377 .24511719-.0073242189 .23779297-.008300781 .22998047-.008300781 .22167969-.008300781 .19921875-.008300781 .18017578-.005859375 .16357422 0 .14746094 .0048828127 .13427735 .014160156 .123535159 .026855469 .11328125 .038085939 .10595703 .05419922 .10107422 .07324219 .095703128 .091796878 .09326172 .11425781 .09326172 .14013672V.39746095H.03173828C.02734375 .39648438 .024414063 .39892579 .020996094 .40429688 .017578125 .4091797 .015625 .41748048 .015625 .43017579 .015625 .43603517 .016601563 .44091798 .017578125 .44580079 .018554688 .44921876 .019042969 .45263673 .020996094 .4560547 .022460938 .4584961 .024414063 .45996095 .025878907 .46142579 .02734375 .46240235 .029785157 .4633789 .032714845 .46435548H.09326172V.5683594C.09326172 .5698242 .09423828 .57177737 .095214847 .57421877 .09667969 .5756836 .09863281 .5776367 .1015625 .57910159 .10498047 .5810547 .109375 .58154299 .11425781 .58251956 .119140628 .58251956 .12597656 .5834961 .13330078 .5839844 .14160156 .5834961 .14941406 .58251956 .15429688 .58251956 .15917969 .58154299 .16357422 .5810547 .16601563 .57910159 .1694336 .5776367 .17089844 .5756836 .17236328 .57421877 .1743164 .57177737 .1743164 .5698242 .1743164 .5683594V.46435548H.2866211C.29003907 .4633789 .29248048 .46240235 .2944336 .46142579 .29589845 .45996095 .29785157 .4584961 .2993164 .4560547 .30078126 .45263673 .3017578 .44921876 .3017578 .44580079 .30273438 .44091798 .30273438 .43603517 .30273438 .43017579 .30273438 .41748048 .3017578 .4091797 .29833985 .40429688 .29589845 .39892579 .2919922 .39648438 .2866211 .39746095H.1743164V.15185547C.1743164 .12060547 .17919922 .09765625 .1875 .08251953 .19677735 .06689453 .21240235 .05908203 .23583985 .060058595 .24365235 .05908203 .25 .060058595 .25585938 .061523439 .26171876 .06347656 .26660157 .064941409 .27197267 .06689453 .27685548 .06738281 .28027345 .06933594 .2836914 .07080078 .2866211 .072265628 .28955079 .07324219 .2919922 .07421875 .29345704 .07324219 .29492188 .072265628 .296875 .072265628 .29833985 .07080078 .2993164 .06933594 .30029298 .06738281 .30078126 .064941409 .3017578 .061523439 .3017578 .05810547 .30273438 .053222658 .30273438 .049316408 .30273438 .043945314Z"/>
<path id="font_1_6" d="M.27490235 0 .21582031-.1616211C.21435547-.16748047 .20996094-.171875 .20166016-.1743164 .19335938-.17773438 .18164063-.17822266 .16503906-.17822266 .15673828-.17822266 .14941406-.17822266 .14404297-.17773438 .13916016-.17675781 .13574219-.17480469 .1328125-.17333985 .12988281-.171875 .12841797-.16845703 .12841797-.16503906 .12841797-.1616211 .12841797-.15820313 .12988281-.15332031L.19091797 0C.1875 0 .1850586 .0024414063 .18261719 .005859375 .18017578 .008300781 .17822266 .01171875 .17675781 .015136719L.020019532 .4350586C.018554688 .44189454 .016601563 .44677735 .016601563 .4506836 .016601563 .45410157 .018554688 .45751954 .020996094 .45996095 .0234375 .46142579 .02734375 .4633789 .033203126 .46484376 .0390625 .46484376 .046875 .4658203 .056640626 .46679688 .06689453 .4658203 .07421875 .46484376 .07910156 .46484376 .08496094 .46435548 .08935547 .4633789 .09277344 .46240235 .095703128 .4609375 .09863281 .4584961 .100097659 .45654298 .1015625 .45410157 .10253906 .4506836 .104003909 .44726563L.22998047 .095214847H.23095703L.35253907 .44921876C.3544922 .45410157 .3569336 .4584961 .359375 .4609375 .36279298 .46240235 .36669923 .4633789 .3720703 .46484376 .3779297 .46484376 .38623048 .4658203 .3959961 .46679688 .40527345 .4658203 .41259767 .46484376 .41845704 .46484376 .4243164 .4633789 .42871095 .46142579 .43115235 .45996095 .4345703 .45751954 .4350586 .45410157 .4350586 .4506836 .4350586 .44677735 .4345703 .44189454 .4326172 .43652345L.27490235 0Z"/>
<path id="font_2_1" d="M.6899414 .45263673C.6899414 .44873048 .6899414 .44580079 .68896487 .4428711 .68896487 .43945313 .6870117 .43554688 .6850586 .4321289L.5551758 .014160156C.5551758 .010253906 .55322268 .0063476564 .5517578 .0048828127 .5498047 .001953125 .54589846 0 .54248049 0 .5385742-.001953125 .5336914-.0029296876 .52734377-.0029296876 .5209961-.00390625 .51220706-.00390625 .5019531-.00390625 .49267579-.00390625 .484375-.00390625 .47705079-.0029296876 .47021485-.001953125 .46484376-.0009765625 .4609375 0 .45751954 .0009765625 .45361329 .0029296876 .45166017 .0053710939 .44970704 .0073242189 .44873048 .010253906 .44726563 .014160156L.3544922 .3330078 .35351563 .33789063 .35302735 .3330078 .26708985 .014160156C.26708985 .010253906 .26513673 .0063476564 .2631836 .0048828127 .26123048 .001953125 .2578125 0 .2529297 0 .24902344-.001953125 .24365235-.0029296876 .23730469-.0029296876 .23046875-.00390625 .22216797-.00390625 .21191406-.00390625 .20263672-.00390625 .19433594-.00390625 .1875-.0029296876 .1821289-.001953125 .17626953-.0009765625 .17285156 0 .16894531 .0009765625 .16503906 .0029296876 .16357422 .0053710939 .1616211 .0073242189 .15966797 .010253906 .1586914 .014160156L.029785157 .4321289C.027832032 .43554688 .026855469 .43945313 .026367188 .4428711 .026367188 .44580079 .025390625 .44873048 .025390625 .45263673 .025390625 .45410157 .026367188 .45703126 .027832032 .45898438 .029785157 .45996095 .03173828 .4609375 .03466797 .46289063 .038085939 .4633789 .041992189 .46435548 .046875 .46533204 .052246095 .46533204 .05810547 .46533204 .06542969 .4663086 .07470703 .46533204 .08203125 .46435548 .087890628 .46435548 .09326172 .4633789 .09814453 .46289063 .10058594 .46289063 .103515628 .4609375 .10546875 .45996095 .10644531 .4580078 .10839844 .45507813 .109375 .45263673 .11035156 .4506836L.2163086 .088378909 .21728516 .083984378 .21826172 .088378909 .3154297 .4506836C.31640626 .45263673 .3173828 .45507813 .31933595 .4580078 .32128907 .45996095 .3227539 .4609375 .3256836 .46289063 .32861329 .46289063 .33203126 .4633789 .33691407 .46435548 .34228517 .46435548 .3491211 .46533204 .3564453 .4663086 .3647461 .46533204 .37158204 .46435548 .37597657 .46435548 .38183595 .4633789 .3852539 .46289063 .3881836 .46289063 .39111329 .4609375 .3930664 .45996095 .39501954 .4580078 .39648438 .4560547 .39746095 .453125 .39746095 .45166017L.5019531 .088378909 .5029297 .083984378 .50390627 .088378909 .60839846 .4506836C.609375 .45263673 .61035159 .45507813 .6123047 .4580078 .6142578 .45996095 .61621096 .4609375 .61865237 .46289063 .6225586 .46289063 .62646487 .4633789 .63183596 .46435548 .63720706 .46435548 .64404299 .46533204 .6513672 .4663086 .65966799 .46533204 .6665039 .46533204 .67089846 .46533204 .67578127 .46435548 .6791992 .4633789 .6821289 .46289063 .6850586 .4609375 .6870117 .45996095 .6879883 .45898438 .6899414 .45703126 .6899414 .45410157 .6899414 .45263673Z"/>
<path id="font_2_2" d="M.44970704 .25097657C.44970704 .2368164 .44726563 .22753906 .4404297 .22314453 .43408204 .21728516 .4267578 .21435547 .41796876 .21533203H.12988281C.12988281 .19042969 .13232422 .16796875 .13720703 .14941406 .14257813 .12890625 .15136719 .111816409 .16259766 .09863281 .17382813 .083984378 .18847656 .07373047 .20605469 .06640625 .22509766 .05859375 .2475586 .05517578 .2734375 .056152345 .2939453 .05517578 .3125 .057128908 .32958985 .060546876 .3461914 .06347656 .36035157 .06738281 .37158204 .071777347 .38378907 .075683597 .3930664 .07910156 .40039063 .08300781 .40771485 .0859375 .41455079 .087890628 .41796876 .088378909 .41992188 .087890628 .421875 .08691406 .42382813 .08691406 .42578126 .08496094 .4272461 .08300781 .42822267 .08105469 .42919923 .078125 .43017579 .075683597 .43017579 .071777347 .43115235 .06738281 .43115235 .0625 .43115235 .057617189 .43115235 .052246095 .43115235 .048339845 .43115235 .045898439 .43115235 .041992189 .43017579 .0390625 .42919923 .037109376 .42919923 .03466797 .42822267 .032714845 .4272461 .030761719 .4267578 .028808594 .4248047 .026855469 .42285157 .025390625 .42089845 .0234375 .41601563 .020507813 .40673829 .016601563 .3984375 .012207031 .38720704 .008300781 .37353517 .0048828127 .359375 .0009765625 .34228517-.001953125 .32373048-.0048828127 .30517579-.008300781 .28564454-.009277344 .26513673-.009277344 .22949219-.009277344 .1977539-.0048828127 .16992188 .0048828127 .14257813 .014160156 .12060547 .028808594 .1015625 .049316408 .08300781 .068847659 .068847659 .09423828 .059570314 .12402344 .05029297 .1538086 .044921876 .18847656 .044921876 .22949219 .044921876 .26660157 .05029297 .30029298 .059570314 .3310547 .06982422 .36083985 .083984378 .38623048 .10253906 .40771485 .12158203 .42822267 .14257813 .44384767 .16894531 .45507813 .19482422 .4663086 .2241211 .47216798 .25585938 .47314454 .29101563 .47216798 .3203125 .4663086 .34423829 .4560547 .36865235 .44482423 .38916017 .43017579 .40429688 .4111328 .41992188 .39257813 .43115235 .3701172 .43847657 .34521485 .44628907 .31884767 .44970704 .29296876 .44970704 .26513673V.25097657M.36865235 .27441407C.3696289 .3154297 .36035157 .3486328 .3408203 .37304688 .32128907 .39746095 .2919922 .40966798 .2529297 .41064454 .23339844 .40966798 .21582031 .40576173 .2006836 .3984375 .18554688 .390625 .17382813 .3803711 .16357422 .36865235 .15283203 .35546876 .14453125 .3413086 .13916016 .3256836 .13330078 .30859376 .13085938 .29101563 .12988281 .27441407H.36865235Z"/>
<path id="font_2_3" d="M.15478516 .012207031C.15478516 .008300781 .15478516 .0063476564 .15283203 .0048828127 .15234375 .0029296876 .15039063 .0009765625 .14648438 0 .14355469-.0009765625 .14013672-.001953125 .13427735-.0029296876 .12988281-.00390625 .123046878-.00390625 .114746097-.00390625 .107421878-.00390625 .10058594-.00390625 .095214847-.0029296876 .08984375-.001953125 .0859375-.0009765625 .08203125 0 .07910156 .0009765625 .07763672 .0029296876 .076660159 .0048828127 .075683597 .0063476564 .07470703 .008300781 .07470703 .012207031V.45166017C.07470703 .45263673 .075683597 .45410157 .076660159 .45703126 .07763672 .45898438 .07910156 .45996095 .08203125 .46191407 .0859375 .46289063 .08984375 .4633789 .095214847 .46435548 .10058594 .46435548 .107421878 .46533204 .114746097 .4663086 .123046878 .46533204 .12988281 .46435548 .13427735 .46435548 .14013672 .4633789 .14355469 .46289063 .14648438 .46191407 .15039063 .45996095 .15234375 .45898438 .15283203 .45703126 .15478516 .45410157 .15478516 .45263673 .15478516 .45166017V.012207031M.1640625 .5996094C.1640625 .5800781 .1616211 .5673828 .1538086 .5605469 .14648438 .55322268 .13330078 .55029299 .11376953 .55126956 .095214847 .55029299 .08300781 .55322268 .075683597 .5605469 .068359378 .56640627 .064453128 .57910159 .064453128 .5986328 .064453128 .6166992 .068359378 .62890627 .075683597 .63623049 .08300781 .6425781 .096191409 .6464844 .114746097 .64746096 .13427735 .6464844 .14746094 .6425781 .1538086 .63720706 .1616211 .6298828 .1640625 .6176758 .1640625 .5996094Z"/>
<path id="font_2_4" d="M.44140626 .43115235C.44140626 .4189453 .4404297 .41064454 .43701173 .40576173 .43408204 .40039063 .43017579 .3984375 .42578126 .39941407H.3623047C.37353517 .38623048 .38183595 .37304688 .38623048 .35888673 .39111329 .34423829 .3930664 .33007813 .3930664 .31640626 .3930664 .29003907 .38916017 .26660157 .38085938 .24804688 .37353517 .22753906 .36132813 .21191406 .3461914 .19873047 .33154298 .18457031 .3125 .1743164 .2919922 .16796875 .27148438 .16064453 .24804688 .15673828 .22216797 .15771485 .2055664 .15673828 .18847656 .1586914 .171875 .1640625 .15576172 .16796875 .14355469 .1743164 .13427735 .1821289 .12890625 .17529297 .123046878 .16894531 .119628909 .16113281 .115722659 .1538086 .11376953 .14550781 .11376953 .13623047 .11376953 .12402344 .119628909 .114746097 .12988281 .107421878 .14111328 .099609378 .15478516 .096191409 .171875 .096191409L.2866211 .091308597C.30908204 .08935547 .32861329 .0859375 .34716798 .08105469 .36572267 .075683597 .38183595 .06738281 .39501954 .057617189 .40771485 .04736328 .41796876 .03564453 .42578126 .021484375 .43310548 .0063476564 .43701173-.009277344 .43701173-.027832032 .43701173-.048339845 .43310548-.067871097 .4248047-.0859375 .41601563-.10449219 .4033203-.12011719 .3852539-.13427735 .36865235-.1484375 .3461914-.15966797 .31933595-.16699219 .2919922-.1743164 .2602539-.17822266 .22314453-.17822266 .1875-.17822266 .15771485-.17529297 .13232422-.16992188 .10839844-.1640625 .087890628-.15576172 .07080078-.14550781 .05517578-.1352539 .043945314-.123046878 .036621095-.10839844 .028808594-.09326172 .025390625-.07763672 .025390625-.060546876 .025390625-.049316408 .026855469-.0390625 .029785157-.028808594 .032714845-.01953125 .036621095-.010253906 .041992189-.0009765625 .047851564 .0073242189 .05419922 .015625 .061523439 .025390625 .06982422 .032714845 .07910156 .041015626 .08886719 .05029297 .07373047 .057617189 .061523439 .06738281 .05419922 .080078128 .046875 .092285159 .041992189 .10644531 .041992189 .12109375 .041992189 .14013672 .046875 .15771485 .05419922 .17333985 .0625 .18847656 .072753909 .203125 .08496094 .2163086 .07470703 .22753906 .06640625 .24072266 .060546876 .25634767 .05517578 .27148438 .052246095 .29003907 .052246095 .3125 .052246095 .33691407 .057128908 .35839845 .06542969 .37890626 .07373047 .3984375 .08496094 .41503907 .100097659 .42919923 .114746097 .4423828 .13330078 .453125 .1538086 .4609375 .17529297 .46728517 .1977539 .4711914 .22216797 .47216798 .23632813 .4711914 .24902344 .47021485 .2602539 .46923829 .27148438 .46728517 .28271485 .46533204 .2919922 .4633789H.42578126C.43115235 .46289063 .4350586 .45996095 .4375 .45507813 .4404297 .44970704 .44140626 .44140626 .44140626 .43115235M.3154297 .3154297C.3154297 .34423829 .30810548 .36767579 .29101563 .38427735 .27441407 .4008789 .25097657 .40966798 .2211914 .41064454 .20605469 .40966798 .19238281 .40673829 .18017578 .40185548 .16894531 .39648438 .1586914 .39013673 .15136719 .3803711 .14355469 .37109376 .1381836 .35986329 .13427735 .3486328 .13085938 .33691407 .12890625 .32470704 .12890625 .3125 .12890625 .28271485 .13720703 .2602539 .1538086 .24365235 .17089844 .2265625 .19335938 .21826172 .22216797 .21923828 .23876953 .21826172 .2529297 .22021485 .26416017 .22558594 .2763672 .23046875 .28564454 .23779297 .29296876 .24707031 .30029298 .2553711 .30615235 .265625 .3100586 .27783204 .31347657 .2890625 .3154297 .3022461 .3154297 .3154297M.3564453-.032714845C.3564453-.014160156 .3491211 0 .3330078 .010253906 .31835938 .01953125 .296875 .025390625 .2705078 .026855469L.15673828 .03173828C.14648438 .022460938 .1381836 .015136719 .13085938 .0073242189 .12402344 0 .118652347-.0063476564 .114746097-.013183594 .110839847-.01953125 .109375-.026367188 .107421878-.032714845 .10546875-.0390625 .10449219-.045898439 .10449219-.052246095 .10449219-.07373047 .115722659-.08935547 .13720703-.10058594 .1586914-.111816409 .18847656-.11669922 .2265625-.11669922 .25097657-.11669922 .27148438-.114746097 .28857423-.10986328 .30517579-.10546875 .31835938-.099121097 .32861329-.091308597 .3388672-.083984378 .3461914-.07470703 .35009767-.064453128 .3544922-.05517578 .3564453-.043945314 .3564453-.032714845Z"/>
<path id="font_2_5" d="M.45263673 .012207031C.45263673 .008300781 .45263673 .0063476564 .4506836 .0048828127 .44970704 .0029296876 .4477539 .0009765625 .4453125 0 .4423828-.0009765625 .43847657-.001953125 .43310548-.0029296876 .4272461-.00390625 .42089845-.00390625 .41259767-.00390625 .40527345-.00390625 .3984375-.00390625 .3930664-.0029296876 .3881836-.001953125 .38476563-.0009765625 .38085938 0 .3779297 .0009765625 .37597657 .0029296876 .37402345 .0048828127 .37353517 .0063476564 .3725586 .008300781 .3725586 .012207031V.26953126C.3725586 .2939453 .37060548 .31347657 .36669923 .32910157 .36328126 .34423829 .3564453 .35742188 .3491211 .36865235 .34179688 .3798828 .33203126 .3881836 .3203125 .39453126 .30908204 .40039063 .29492188 .40283204 .27929688 .4038086 .25927735 .40283204 .2397461 .3955078 .21923828 .38134767 .19873047 .36669923 .1772461 .34521485 .15478516 .31884767V.012207031C.15478516 .008300781 .15478516 .0063476564 .15283203 .0048828127 .15234375 .0029296876 .15039063 .0009765625 .14648438 0 .14355469-.0009765625 .14013672-.001953125 .13427735-.0029296876 .12988281-.00390625 .123046878-.00390625 .114746097-.00390625 .107421878-.00390625 .10058594-.00390625 .095214847-.0029296876 .08984375-.001953125 .0859375-.0009765625 .08203125 0 .07910156 .0009765625 .07763672 .0029296876 .076660159 .0048828127 .075683597 .0063476564 .07470703 .008300781 .07470703 .012207031V.6640625C.07470703 .6660156 .075683597 .66796877 .076660159 .6699219 .07763672 .6713867 .07910156 .67333987 .08203125 .67529299 .0859375 .67626956 .08984375 .6772461 .095214847 .67822268 .10058594 .67822268 .107421878 .6791992 .114746097 .6801758 .123046878 .6791992 .12988281 .67822268 .13427735 .67822268 .14013672 .6772461 .14355469 .67626956 .14648438 .67529299 .15039063 .67333987 .15234375 .6713867 .15283203 .6699219 .15478516 .66796877 .15478516 .6660156 .15478516 .6640625V.4008789C.17822266 .4243164 .20166016 .4423828 .22509766 .45410157 .24902344 .46533204 .27246095 .47216798 .29589845 .47314454 .3256836 .47216798 .35009767 .4663086 .3696289 .45703126 .39013673 .44677735 .40576173 .43359376 .41796876 .41796876 .43115235 .4008789 .43945313 .38134767 .4453125 .35888673 .4506836 .33691407 .45263673 .3095703 .45263673 .27978517V.012207031Z"/>
<path id="font_2_6" d="M.30322267 .043945314C.30322267 .033691408 .30322267 .025878907 .30126954 .020507813 .2998047 .015136719 .29785157 .010253906 .29492188 .008300781 .29296876 .0053710939 .28955079 .00390625 .2836914 .001953125 .2783203 0 .27246095-.001953125 .26611329-.00390625 .25927735-.0053710939 .25195313-.0063476564 .2446289-.0073242189 .23730469-.008300781 .22949219-.008300781 .22216797-.008300781 .19970703-.008300781 .18017578-.0053710939 .16357422 0 .14746094 .0053710939 .13427735 .014160156 .123046878 .026855469 .11279297 .038085939 .10546875 .05419922 .10058594 .07373047 .096191409 .092285159 .09326172 .11376953 .09326172 .14013672V.39746095H.03173828C.026855469 .39648438 .0234375 .3984375 .020507813 .4038086 .017578125 .4086914 .016113282 .4169922 .016113282 .43017579 .016113282 .43554688 .016601563 .4404297 .017578125 .44482423 .018554688 .44873048 .01953125 .45263673 .020507813 .4560547 .022460938 .4580078 .024414063 .45996095 .026367188 .46191407 .027832032 .46191407 .030761719 .46289063 .032714845 .4633789H.09326172V.5678711C.09326172 .5698242 .09423828 .57177737 .095214847 .57373049 .09716797 .5756836 .099121097 .5776367 .1015625 .57910159 .10546875 .5800781 .109375 .5810547 .11376953 .58203127 .119628909 .58203127 .12597656 .5830078 .13330078 .5839844 .14208985 .5830078 .1484375 .58203127 .1538086 .58203127 .15966797 .5810547 .16357422 .5800781 .16601563 .57910159 .16894531 .5776367 .17089844 .5756836 .171875 .57373049 .17382813 .57177737 .17382813 .5698242 .17382813 .5678711V.4633789H.2866211C.29003907 .46289063 .2919922 .46191407 .2939453 .46191407 .29589845 .45996095 .29785157 .4580078 .2998047 .4560547 .30126954 .45263673 .3022461 .44873048 .3022461 .44482423 .30322267 .4404297 .30322267 .43554688 .30322267 .43017579 .30322267 .4169922 .3022461 .4086914 .29882813 .4038086 .29589845 .3984375 .2919922 .39648438 .2866211 .39746095H.17382813V.15185547C.17382813 .12011719 .17822266 .09814453 .1875 .08300781 .19677735 .06738281 .21289063 .059570314 .23535156 .060546876 .24267578 .059570314 .25 .059570314 .25585938 .061523439 .26123048 .0625 .26708985 .064453128 .27148438 .06640625 .2763672 .06738281 .27978517 .068847659 .28271485 .07080078 .2866211 .071777347 .28955079 .072753909 .2919922 .07373047 .2939453 .072753909 .29492188 .071777347 .296875 .071777347 .29882813 .07080078 .2998047 .068847659 .30029298 .06738281 .30126954 .064453128 .3022461 .061523439 .3022461 .057617189 .30322267 .05419922 .30322267 .049316408 .30322267 .043945314Z"/>
<path id="font_2_7" d=""/>
<path id="font_2_8" d="M.15478516 .012207031C.15478516 .008300781 .15478516 .0063476564 .15283203 .0048828127 .15234375 .0029296876 .15039063 .0009765625 .14648438 0 .14355469-.0009765625 .14013672-.001953125 .13427735-.0029296876 .12988281-.00390625 .123046878-.00390625 .114746097-.00390625 .107421878-.00390625 .10058594-.00390625 .095214847-.0029296876 .08984375-.001953125 .0859375-.0009765625 .08203125 0 .07910156 .0009765625 .07763672 .0029296876 .076660159 .0048828127 .075683597 .0063476564 .07470703 .008300781 .07470703 .012207031V.6640625C.07470703 .6660156 .075683597 .66796877 .076660159 .6699219 .07763672 .6713867 .07910156 .67333987 .08203125 .67529299 .0859375 .67626956 .08984375 .6772461 .095214847 .67822268 .10058594 .67822268 .107421878 .6791992 .114746097 .6801758 .123046878 .6791992 .12988281 .67822268 .13427735 .67822268 .14013672 .6772461 .14355469 .67626956 .14648438 .67529299 .15039063 .67333987 .15234375 .6713867 .15283203 .6699219 .15478516 .66796877 .15478516 .6660156 .15478516 .6640625V.012207031Z"/>
<path id="font_2_9" d="M.40576173 .011230469C.40576173 .0063476564 .40527345 .00390625 .40234376 .001953125 .39941407 0 .3955078-.0009765625 .39111329-.001953125 .38720704-.00390625 .3798828-.00390625 .37060548-.00390625 .36328126-.00390625 .3564453-.00390625 .35107423-.001953125 .3461914-.0009765625 .34228517 0 .33984376 .001953125 .33789063 .00390625 .3359375 .0063476564 .3359375 .011230469V.05517578C.3173828 .033691408 .29589845 .017578125 .27148438 .0063476564 .24804688-.0048828127 .22314453-.009277344 .19677735-.009277344 .1743164-.009277344 .15283203-.0063476564 .13427735-.0009765625 .115722659 .0048828127 .100097659 .013183594 .08691406 .025390625 .07373047 .036132814 .06347656 .05029297 .056152345 .06738281 .048339845 .08300781 .044921876 .1015625 .044921876 .12402344 .044921876 .1484375 .05029297 .16992188 .059570314 .18847656 .06982422 .20605469 .08496094 .2211914 .103515628 .23339844 .12207031 .2446289 .14550781 .25390626 .17285156 .2602539 .2006836 .265625 .23144531 .26953126 .26513673 .2705078H.3256836V.30419923C.3256836 .31982423 .32373048 .33496095 .3203125 .34814454 .31640626 .36083985 .31103517 .37109376 .30322267 .3803711 .29589845 .38916017 .28564454 .3955078 .27246095 .40039063 .25927735 .4038086 .24365235 .40673829 .22509766 .40771485 .2055664 .40673829 .1875 .4038086 .171875 .40039063 .15576172 .39453126 .14208985 .39013673 .12988281 .38427735 .118652347 .37890626 .10839844 .37304688 .100097659 .3696289 .092285159 .36376954 .0859375 .3618164 .08203125 .36279298 .080078128 .3618164 .07763672 .3618164 .075683597 .36376954 .07373047 .3647461 .072753909 .36669923 .07080078 .3696289 .068847659 .37109376 .068359378 .375 .06738281 .3798828 .06738281 .38330079 .06640625 .3881836 .06640625 .3935547 .06640625 .4008789 .06738281 .40673829 .068359378 .41210938 .068847659 .41601563 .071777347 .42089845 .076660159 .42529298 .08105469 .42919923 .08886719 .4345703 .099121097 .4404297 .11035156 .44580079 .12207031 .4506836 .13623047 .4560547 .15039063 .45996095 .16503906 .4633789 .1821289 .46728517 .19873047 .47021485 .21582031 .47216798 .23242188 .47314454 .26416017 .47216798 .29101563 .46826173 .31347657 .46191407 .3359375 .45410157 .35351563 .4428711 .36669923 .43017579 .38085938 .41601563 .39111329 .39941407 .39648438 .37890626 .4033203 .35839845 .40576173 .33398438 .40576173 .3076172V.011230469M.3256836 .21191406H.25683595C.234375 .2109375 .21582031 .20898438 .19873047 .20507813 .18310547 .20166016 .16992188 .19580078 .1586914 .18945313 .14746094 .1821289 .14013672 .17236328 .13427735 .16308594 .12988281 .15185547 .12695313 .140625 .12695313 .12792969 .12695313 .10449219 .13427735 .0859375 .14941406 .072753909 .1640625 .05859375 .18408203 .052246095 .20996094 .053222658 .23144531 .052246095 .25097657 .057617189 .2685547 .068847659 .28759767 .07910156 .30615235 .096191409 .3256836 .118652347V.21191406Z"/>
<path id="font_2_10" d="M.27441407 0 .2163086-.16210938C.21484375-.16796875 .20898438-.171875 .20166016-.1743164 .19433594-.1772461 .1821289-.17822266 .16503906-.17822266 .15673828-.17822266 .15039063-.17822266 .14453125-.1772461 .13916016-.17626953 .1352539-.1743164 .13232422-.17236328 .12988281-.17089844 .12792969-.16894531 .12792969-.16503906 .12792969-.16210938 .12792969-.1586914 .12988281-.15283203L.19042969 0C.18847656 0 .18554688 .001953125 .18310547 .0053710939 .18017578 .0073242189 .17822266 .011230469 .1772461 .015136719L.020507813 .43554688C.017578125 .44140626 .016113282 .44677735 .016113282 .4506836 .016113282 .45410157 .017578125 .45703126 .020507813 .45996095 .0234375 .46191407 .027832032 .46289063 .033691408 .46435548 .0390625 .46435548 .046875 .46533204 .056152345 .4663086 .06640625 .46533204 .07373047 .46435548 .07910156 .46435548 .08496094 .4633789 .08984375 .46289063 .092285159 .46191407 .096191409 .45996095 .09814453 .4580078 .100097659 .4560547 .1015625 .453125 .10253906 .4506836 .10449219 .4477539L.22949219 .095214847H.23144531L.35302735 .44970704C.3544922 .45507813 .35742188 .45898438 .36035157 .4609375 .36328126 .46191407 .36669923 .46289063 .3725586 .46435548 .3779297 .46435548 .3852539 .46533204 .3955078 .4663086 .40527345 .46533204 .41357423 .46435548 .4189453 .46435548 .4248047 .46289063 .42919923 .46191407 .4321289 .45996095 .4350586 .45703126 .43603517 .45410157 .43603517 .4506836 .43603517 .44677735 .4350586 .4423828 .4321289 .43652345L.27441407 0Z"/>
<path id="font_2_11" d="M.33154298 .42236329C.33154298 .4140625 .33154298 .40771485 .33154298 .4038086 .33154298 .3984375 .3305664 .39453126 .32958985 .39257813 .32861329 .38916017 .32763673 .38720704 .3256836 .38623048 .32373048 .38427735 .32177735 .38330079 .31933595 .38427735 .3173828 .38330079 .31347657 .38427735 .3100586 .38623048 .30615235 .38720704 .3022461 .38916017 .29785157 .390625 .29296876 .39160157 .28759767 .39257813 .28173829 .39453126 .2763672 .3955078 .26953126 .39648438 .26220704 .39746095 .2548828 .39648438 .24658203 .39453126 .23876953 .39160157 .23144531 .3881836 .22314453 .38232423 .21386719 .375 .2055664 .36767579 .19580078 .35742188 .18652344 .34521485 .1772461 .33203126 .16601563 .3178711 .15478516 .30126954V.012207031C.15478516 .008300781 .15478516 .0063476564 .15283203 .0048828127 .15234375 .0029296876 .15039063 .0009765625 .14648438 0 .14355469-.0009765625 .14013672-.001953125 .13427735-.0029296876 .12988281-.00390625 .123046878-.00390625 .114746097-.00390625 .107421878-.00390625 .10058594-.00390625 .095214847-.0029296876 .08984375-.001953125 .0859375-.0009765625 .08203125 0 .07910156 .0009765625 .07763672 .0029296876 .076660159 .0048828127 .075683597 .0063476564 .07470703 .008300781 .07470703 .012207031V.45166017C.07470703 .453125 .075683597 .45507813 .076660159 .45703126 .07763672 .45898438 .07910156 .45996095 .08203125 .46191407 .08496094 .46289063 .08886719 .4633789 .09326172 .46435548 .09814453 .46435548 .103515628 .46533204 .110839847 .4663086 .118652347 .46533204 .12402344 .46435548 .12890625 .46435548 .13427735 .4633789 .1381836 .46289063 .14013672 .46191407 .14257813 .45996095 .14453125 .45898438 .14550781 .45703126 .14746094 .45507813 .14746094 .453125 .14746094 .45166017V.38720704C.15966797 .4038086 .17089844 .4189453 .18115235 .43017579 .19238281 .4404297 .20166016 .44873048 .2109375 .4560547 .22021485 .46191407 .22949219 .4663086 .23876953 .46923829 .24804688 .4711914 .2578125 .47216798 .26708985 .47314454 .27148438 .47216798 .2763672 .47216798 .28173829 .47216798 .28759767 .4711914 .29296876 .47021485 .29882813 .46923829 .30419923 .46728517 .3100586 .4663086 .31445313 .46435548 .3203125 .46289063 .3227539 .4609375 .32470704 .45996095 .32666017 .4580078 .32861329 .4560547 .32861329 .45507813 .32958985 .453125 .3305664 .45166017 .3305664 .44970704 .33154298 .44677735 .33154298 .4428711 .33154298 .43945313 .33154298 .4345703 .33154298 .42919923 .33154298 .42236329Z"/>
<path id="font_1_7" d="M.3310547 .42236329C.3310547 .4140625 .3310547 .40820313 .3310547 .40429688 .3310547 .39892579 .33007813 .39501954 .32910157 .39257813 .32861329 .38916017 .32763673 .3876953 .32617188 .3857422 .32421876 .38427735 .3227539 .38330079 .31933595 .38427735 .31689454 .38330079 .31347657 .38427735 .3100586 .3857422 .30664063 .3876953 .30273438 .38916017 .29785157 .390625 .29248048 .39160157 .28759767 .3935547 .28173829 .39501954 .2758789 .3959961 .26953126 .39648438 .26171876 .39746095 .25439454 .39648438 .24658203 .39501954 .23828125 .39160157 .23095703 .3881836 .22265625 .38232423 .2133789 .37597657 .20507813 .36767579 .19580078 .35742188 .18603516 .34570313 .17675781 .33251954 .16699219 .3173828 .15527344 .30078126V.01171875C.15527344 .008300781 .15527344 .0068359377 .15332031 .0048828127 .15185547 .0024414063 .14990235 .0009765625 .14697266 0 .14404297-.0014648438 .14013672-.0024414063 .1352539-.0024414063 .12988281-.0034179688 .122558597-.0034179688 .11425781-.0034179688 .106933597-.0034179688 .100097659-.0034179688 .095214847-.0024414063 .08984375-.0024414063 .0859375-.0014648438 .08251953 0 .07910156 .0009765625 .07763672 .0024414063 .075683597 .0048828127 .07519531 .0068359377 .07421875 .008300781 .07421875 .01171875V.45166017C.07421875 .453125 .07519531 .45507813 .075683597 .45751954 .07763672 .45898438 .07910156 .4609375 .08154297 .46240235 .08496094 .4633789 .088378909 .46435548 .09326172 .46484376 .09863281 .46484376 .104003909 .4658203 .110839847 .46679688 .11816406 .4658203 .12402344 .46484376 .12939453 .46484376 .13427735 .46435548 .13769531 .4633789 .14013672 .46240235 .14257813 .4609375 .14404297 .45898438 .1459961 .45751954 .14746094 .45507813 .14746094 .453125 .14746094 .45166017V.3876953C.15917969 .40429688 .17089844 .41845704 .18115235 .43017579 .19189453 .4399414 .20166016 .44921876 .2109375 .4560547 .2211914 .46142579 .22998047 .4658203 .23925781 .46923829 .24951172 .47070313 .25830079 .47265626 .26757813 .47314454 .27197267 .47265626 .27685548 .4716797 .28173829 .4716797 .28759767 .47070313 .29345704 .47021485 .2993164 .46923829 .30517579 .46728517 .3100586 .46679688 .3149414 .46484376 .3203125 .4633789 .32373048 .46142579 .3251953 .45996095 .32666017 .4584961 .32861329 .45654298 .32861329 .4560547 .32910157 .45410157 .33007813 .45166017 .33007813 .4501953 .3310547 .44677735 .3310547 .44335938 .3310547 .4399414 .3310547 .4350586 .3310547 .42919923 .3310547 .42236329Z"/>
<path id="font_1_8" d="M.15527344 .01171875C.15527344 .008300781 .15527344 .0068359377 .15332031 .0048828127 .15185547 .0024414063 .14990235 .0009765625 .14697266 0 .14404297-.0014648438 .14013672-.0024414063 .1352539-.0024414063 .12988281-.0034179688 .122558597-.0034179688 .11425781-.0034179688 .106933597-.0034179688 .100097659-.0034179688 .095214847-.0024414063 .08984375-.0024414063 .0859375-.0014648438 .08251953 0 .07910156 .0009765625 .07763672 .0024414063 .075683597 .0048828127 .07519531 .0068359377 .07421875 .008300781 .07421875 .01171875V.6640625C.07421875 .6660156 .07519531 .66845706 .075683597 .67089846 .07763672 .6723633 .07910156 .67333987 .08251953 .6748047 .0859375 .67578127 .08984375 .6767578 .095214847 .67822268 .100097659 .67822268 .106933597 .6791992 .11425781 .6801758 .122558597 .6791992 .12988281 .67822268 .1352539 .67822268 .14013672 .6767578 .14404297 .67578127 .14697266 .6748047 .14990235 .67333987 .15185547 .6723633 .15332031 .67089846 .15527344 .66845706 .15527344 .6660156 .15527344 .6640625V.01171875Z"/>
<path id="font_1_9" d="M.45117188 .01171875C.45117188 .008300781 .45117188 .0068359377 .44921876 .0048828127 .44873048 .0024414063 .44677735 .0009765625 .44335938 0 .4404297-.0014648438 .43701173-.0024414063 .43164063-.0024414063 .4267578-.0034179688 .42089845-.0034179688 .41455079-.0034179688 .40771485-.0034179688 .40185548-.0034179688 .39697267-.0024414063 .39208985-.0024414063 .38867188-.0014648438 .3852539 0 .3828125 .0009765625 .38085938 .0024414063 .37939454 .0048828127 .37841798 .0068359377 .3779297 .008300781 .3779297 .01171875V.06982422C.35253907 .041503908 .32861329 .020996094 .30371095 .008300781 .27929688-.0043945314 .25439454-.010253906 .22949219-.010253906 .20019531-.010253906 .17529297-.005859375 .15527344 .0043945314 .1352539 .014160156 .119140628 .02734375 .106933597 .043945314 .095214847 .061035158 .0859375 .080078128 .080078128 .10253906 .07519531 .12402344 .071777347 .15185547 .071777347 .1850586V.45166017C.071777347 .453125 .072753909 .45507813 .07324219 .45751954 .07519531 .45898438 .076660159 .4609375 .080078128 .46240235 .083496097 .4633789 .088378909 .46435548 .09326172 .46484376 .09863281 .46484376 .10498047 .4658203 .11279297 .46679688 .12109375 .4658203 .1274414 .46484376 .1328125 .46484376 .13769531 .46435548 .14160156 .4633789 .14501953 .46240235 .1484375 .4609375 .14990235 .45898438 .15185547 .45751954 .15332031 .45507813 .15332031 .453125 .15332031 .45166017V.19580078C.15332031 .16894531 .15576172 .1484375 .15917969 .13330078 .16259766 .11767578 .16845703 .104003909 .17578125 .09326172 .18408203 .08154297 .19335938 .07324219 .20507813 .068359378 .21679688 .061523439 .23095703 .05908203 .24609375 .060058595 .26611329 .05908203 .2861328 .06591797 .30615235 .08105469 .32617188 .09423828 .34765626 .115722659 .3701172 .14404297V.45166017C.3701172 .453125 .37109376 .45507813 .3720703 .45751954 .37353517 .45898438 .375 .4609375 .37841798 .46240235 .38183595 .4633789 .38623048 .46435548 .39111329 .46484376 .3959961 .46484376 .40283204 .4658203 .41015626 .46679688 .41845704 .4658203 .42529298 .46484376 .43017579 .46484376 .4350586 .46435548 .43945313 .4633789 .4428711 .46240235 .44628907 .4609375 .4477539 .45898438 .44921876 .45751954 .45117188 .45507813 .45117188 .453125 .45117188 .45166017V.01171875Z"/>
<path id="font_3_1" d="M.8299866 .6445923C.8299866 .6905823 .7529907 .68359377 .7220001 .68359377H.34498597C.29499818 .68359377 .20599365 .6545868 .18998719 .6006012 .19198609 .5946045 .19400025 .5935974 .19999695 .5935974 .22200012 .5935974 .2519989 .6115875 .2659912 .6265869 .29699708 .6265869 .32699586 .6285858 .35798646 .6285858H.41999818C.41999818 .6285858 .41600038 .6105957 .41600038 .6095886 .3769989 .42668153 .31799317 .27171327 .27398683 .17373657 .2679901 .16075135 .21398926 .0357666 .19999695 .023773194 .1559906 .023773194 .12298584 .04776001 .10499573 .086761478 .101989749 .09277344 .101989749 .09677124 .09498596 .09677124 .07199097 .09677124 .016998291 .06477356 .016998291 .04776001 .016998291 .04576111 .017990113 .043762208 .018997193 .041763307 .036987306-.0052337648 .08198547-.032226564 .1309967-.032226564 .18199158-.032226564 .24099732 .004760742 .272995 .041763307 .30599977 .07977295 .37199403 .24372864 .397995 .30371095L.59098818 .30393983C.58999636 .30293275 .58898928 .30194093 .58898928 .30093385 .58898928 .29670716 .59498599 .29370118 .598999 .29370118 .62098696 .29370118 .6779938 .32170106 .6779938 .3527069 .6779938 .35969544 .67099 .3587036 .6589966 .3587036H.4189911C.44499208 .44866944 .47898866 .5366211 .49699403 .6285858H.6289978C.6539917 .6285858 .723999 .6335907 .74198916 .6115875 .74398806 .6055908 .7409973 .5955963 .74398806 .5906067 .74598696 .5886078 .7489929 .5876007 .7519989 .5876007 .776001 .5876007 .8299866 .6175995 .8299866 .6445923Z"/>
<path id="font_4_1" d="M.33099366-.2400055C.33099366-.23701477 .33099366-.23500061 .31399537-.21800232 .18899536-.0920105 .15699768 .09700012 .15699768 .25 .15699768 .42399598 .19499207 .59799197 .31799317 .72299197 .33099366 .73498538 .33099366 .7369995 .33099366 .73999026 .33099366 .746994 .32699586 .75 .32099916 .75 .31098939 .75 .22099304 .6819916 .1619873 .5549927 .11099243 .44499208 .09899902 .33399964 .09899902 .25 .09899902 .17199707 .10998535 .050994874 .16499329-.06201172 .22499085-.18501282 .31098939-.25 .32099916-.25 .32699586-.25 .33099366-.24700928 .33099366-.2400055Z"/>
<path id="font_5_1" d="M.34599305 .2461853 .46299745 .37631227C.47599793 .39031983 .48199464 .3973236 .5649872 .3973236V.44433595C.5299988 .44232179 .47799684 .44132997 .47299195 .44132997 .44799806 .44132997 .397995 .44332887 .36999513 .44433595V.3973236C.38398744 .3973236 .3959961 .3953247 .4079895 .38832093 .4039917 .38230897 .4039917 .38031007 .3999939 .37631227L.31599427 .2822113 .21798706 .3973236H.2579956V.44433595C.23199463 .44332887 .16899109 .44132997 .13699341 .44132997 .10499573 .44132997 .05999756 .44332887 .026992798 .44433595V.3973236H.09799194L.2539978 .21315003 .12298584 .06600952C.10598755 .04699707 .069992069 .04699707 .021987915 .04699707V0C.056991579 .0019989014 .10899353 .0029907227 .11399841 .0029907227 .13899231 .0029907227 .19699097 .0009918213 .21699524 0V.04699707C.19898987 .04699707 .17999268 .052001954 .17999268 .057998659 .17999268 .059005739 .17999268 .05999756 .18699646 .06800842L.28399659 .17712403 .3939972 .04699707H.35499574V0C.3809967 .0009918213 .44198609 .0029907227 .47499085 .0029907227 .5069885 .0029907227 .5519867 .0009918213 .58499148 0V.04699707H.5139923L.34599305 .2461853Z"/>
<path id="font_4_2" d="M.2889862 .25C.2889862 .32798768 .27799989 .44898988 .22299195 .56199648 .16299439 .68499758 .07699585 .75 .066986087 .75 .06098938 .75 .056991579 .74598696 .056991579 .73999026 .056991579 .7369995 .056991579 .73498538 .07598877 .71699526 .17399597 .6179962 .23098755 .45899964 .23098755 .25 .23098755 .07899475 .19400025-.09700012 .069992069-.2230072 .056991579-.23500061 .056991579-.23701477 .056991579-.2400055 .056991579-.2460022 .06098938-.25 .066986087-.25 .07699585-.25 .16699219-.18200684 .22599793-.055007936 .2769928 .054992677 .2889862 .16600037 .2889862 .25Z"/>
<path id="font_6_1" d=""/>
<path id="font_4_3" d="M.40899659 .23046875H.6879883C.70199587 .23046875 .72099307 .23046875 .72099307 .25045777 .72099307 .27046205 .70199587 .27046205 .6879883 .27046205H.40899659V.5500183C.40899659 .56399539 .40899659 .5830078 .3889923 .5830078 .36898805 .5830078 .36898805 .56399539 .36898805 .5500183V.27046205H.08898926C.07499695 .27046205 .055999757 .27046205 .055999757 .25045777 .055999757 .23046875 .07499695 .23046875 .08898926 .23046875H.36898805V-.05000305C.36898805-.06401062 .36898805-.08300781 .3889923-.08300781 .40899659-.08300781 .40899659-.06401062 .40899659-.05000305V.23046875Z"/>
</defs>
<use data-text="i" xlink:href="#font_1_1" transform="matrix(8.7992,0,0,-8.8033,156.56,61.6186)" fill="#040707"/>
<use data-text="d" xlink:href="#font_1_2" transform="matrix(8.7992,0,0,-8.8033,158.67972,61.6186)" fill="#040707"/>
<use data-text="e" xlink:href="#font_1_3" transform="matrix(8.7992,0,0,-8.8033,163.25531,61.6186)" fill="#040707"/>
<use data-text="n" xlink:href="#font_1_4" transform="matrix(8.7992,0,0,-8.8033,167.60124,61.6186)" fill="#040707"/>
<use data-text="t" xlink:href="#font_1_5" transform="matrix(8.7992,0,0,-8.8033,172.2965,61.6186)" fill="#040707"/>
<use data-text="i" xlink:href="#font_1_1" transform="matrix(8.7992,0,0,-8.8033,175.22576,61.6186)" fill="#040707"/>
<use data-text="t" xlink:href="#font_1_5" transform="matrix(8.7992,0,0,-8.8033,177.22229,61.6186)" fill="#040707"/>
<use data-text="y" xlink:href="#font_1_6" transform="matrix(8.7992,0,0,-8.8033,180.15155,61.6186)" fill="#040707"/>
<path transform="matrix(1,0,0,-1,0,91.575)" d="M73.574 56.719H130.855V69.983H73.574Z" fill="#ffffff"/>
<path transform="matrix(1,0,0,-1,0,91.575)" stroke-width=".734" stroke-linecap="round" stroke-linejoin="round" fill="none" stroke="#040707" d="M73.574 56.719H130.855V69.983H73.574Z"/>
<use data-text="w" xlink:href="#font_2_1" transform="matrix(7.8607,0,0,-7.8643,82.6123,30.513398)" fill="#040707"/>
<use data-text="e" xlink:href="#font_2_2" transform="matrix(7.8607,0,0,-7.8643,88.13208,30.513398)" fill="#040707"/>
<use data-text="i" xlink:href="#font_2_3" transform="matrix(7.8607,0,0,-7.8643,92.010547,30.513398)" fill="#040707"/>
<use data-text="g" xlink:href="#font_2_4" transform="matrix(7.8607,0,0,-7.8643,93.886898,30.513398)" fill="#040707"/>
<use data-text="h" xlink:href="#font_2_5" transform="matrix(7.8607,0,0,-7.8643,97.52562,30.513398)" fill="#040707"/>
<use data-text="t" xlink:href="#font_2_6" transform="matrix(7.8607,0,0,-7.8643,101.62655,30.513398)" fill="#040707"/>
<use data-text=" " xlink:href="#font_2_7" transform="matrix(7.8607,0,0,-7.8643,104.21507,30.513398)" fill="#040707"/>
<use data-text="l" xlink:href="#font_2_8" transform="matrix(7.8607,0,0,-7.8643,106.09142,30.513398)" fill="#040707"/>
<use data-text="a" xlink:href="#font_2_9" transform="matrix(7.8607,0,0,-7.8643,107.85065,30.513398)" fill="#040707"/>
<use data-text="y" xlink:href="#font_2_10" transform="matrix(7.8607,0,0,-7.8643,111.60649,30.513398)" fill="#040707"/>
<use data-text="e" xlink:href="#font_2_2" transform="matrix(7.8607,0,0,-7.8643,115.131229,30.513398)" fill="#040707"/>
<use data-text="r" xlink:href="#font_2_11" transform="matrix(7.8607,0,0,-7.8643,119.00969,30.513398)" fill="#040707"/>
<path transform="matrix(1,0,0,-1,0,91.575)" d="M73.574 30.308H130.855V43.572H73.574Z" fill="#ffffff"/>
<path transform="matrix(1,0,0,-1,0,91.575)" stroke-width=".734" stroke-linecap="round" stroke-linejoin="round" fill="none" stroke="#040707" d="M73.574 30.308H130.855V43.572H73.574Z"/>
<use data-text="w" xlink:href="#font_2_1" transform="matrix(7.8607,0,0,-7.8643,82.6123,56.923498)" fill="#040707"/>
<use data-text="e" xlink:href="#font_2_2" transform="matrix(7.8607,0,0,-7.8643,88.13208,56.923498)" fill="#040707"/>
<use data-text="i" xlink:href="#font_2_3" transform="matrix(7.8607,0,0,-7.8643,92.010547,56.923498)" fill="#040707"/>
<use data-text="g" xlink:href="#font_2_4" transform="matrix(7.8607,0,0,-7.8643,93.886898,56.923498)" fill="#040707"/>
<use data-text="h" xlink:href="#font_2_5" transform="matrix(7.8607,0,0,-7.8643,97.52562,56.923498)" fill="#040707"/>
<use data-text="t" xlink:href="#font_2_6" transform="matrix(7.8607,0,0,-7.8643,101.62655,56.923498)" fill="#040707"/>
<use data-text=" " xlink:href="#font_2_7" transform="matrix(7.8607,0,0,-7.8643,104.21507,56.923498)" fill="#040707"/>
<use data-text="l" xlink:href="#font_2_8" transform="matrix(7.8607,0,0,-7.8643,106.09142,56.923498)" fill="#040707"/>
<use data-text="a" xlink:href="#font_2_9" transform="matrix(7.8607,0,0,-7.8643,107.85065,56.923498)" fill="#040707"/>
<use data-text="y" xlink:href="#font_2_10" transform="matrix(7.8607,0,0,-7.8643,111.60649,56.923498)" fill="#040707"/>
<use data-text="e" xlink:href="#font_2_2" transform="matrix(7.8607,0,0,-7.8643,115.131229,56.923498)" fill="#040707"/>
<use data-text="r" xlink:href="#font_2_11" transform="matrix(7.8607,0,0,-7.8643,119.00969,56.923498)" fill="#040707"/>
<path transform="matrix(1,0,0,-1,102.214,34.855997)" stroke-width=".734" stroke-linecap="round" stroke-linejoin="round" fill="none" stroke="#040707" d="M0 0V-9.977"/>
<path transform="matrix(1,0,0,-1,102.214,48.003)" d="M0 0-2.112 4.226C-.821 3.521 .822 3.521 2.113 4.226L0 0" fill="#040707" fill-rule="evenodd"/>
<path transform="matrix(1,0,0,-1,102.214,8.445999)" stroke-width=".734" stroke-linecap="round" stroke-linejoin="round" fill="none" stroke="#040707" d="M0 0V-9.977"/>
<path transform="matrix(1,0,0,-1,102.214,21.592995)" d="M0 0-2.112 4.226C-.821 3.521 .822 3.521 2.113 4.226L0 0" fill="#040707" fill-rule="evenodd"/>
<path transform="matrix(1,0,0,-1,102.214,61.267)" stroke-width=".734" stroke-linecap="round" stroke-linejoin="round" fill="none" stroke="#040707" d="M0 0V-5.517"/>
<path transform="matrix(1,0,0,-1,102.214,70.07)" d="M0 0-2.112 4.343C-.821 3.639 .822 3.639 2.113 4.343L0 0" fill="#040707" fill-rule="evenodd"/>
<path transform="matrix(1,0,0,-1,106.557,74.412998)" d="M0 0C0 2.348-1.878 4.343-4.343 4.343-6.808 4.343-8.803 2.348-8.803 0-8.803-2.465-6.808-4.46-4.343-4.46-1.878-4.46 0-2.465 0 0" fill="#ffffff" fill-rule="evenodd"/>
<path transform="matrix(1,0,0,-1,106.557,74.412998)" stroke-width=".734" stroke-linecap="round" stroke-linejoin="round" fill="none" stroke="#040707" d="M0 0C0 2.348-1.878 4.343-4.343 4.343-6.808 4.343-8.803 2.348-8.803 0-8.803-2.465-6.808-4.46-4.343-4.46-1.878-4.46 0-2.465 0 0Z"/>
<path transform="matrix(1,0,0,-1,99.984,74.412998)" stroke-width=".734" stroke-linecap="round" stroke-linejoin="round" fill="none" stroke="#040707" d="M0 0H4.461"/>
<path transform="matrix(1,0,0,-1,102.214008,76.643)" stroke-width=".734" stroke-linecap="round" stroke-linejoin="round" fill="none" stroke="#040707" d="M0 0V4.343"/>
<path transform="matrix(1,0,0,-1,102.214008,78.873)" stroke-width=".734" stroke-linecap="round" stroke-linejoin="round" fill="none" stroke="#040707" d="M0 0V-5.5168"/>
<path transform="matrix(1,0,0,-1,102.214,87.6765)" d="M0 0-2.112 4.3429C-.821 3.6387 .822 3.6387 2.113 4.3429L0 0" fill="#040707" fill-rule="evenodd"/>
<use data-text="r" xlink:href="#font_1_7" transform="matrix(8.7992,0,0,-8.8033,106.088,42.955499)" fill="#040707"/>
<use data-text="e" xlink:href="#font_1_3" transform="matrix(8.7992,0,0,-8.8033,109.1466,42.955499)" fill="#040707"/>
<use data-text="l" xlink:href="#font_1_8" transform="matrix(8.7992,0,0,-8.8033,113.61395,42.955499)" fill="#040707"/>
<use data-text="u" xlink:href="#font_1_9" transform="matrix(8.7992,0,0,-8.8033,115.61665,42.955499)" fill="#040707"/>
<use data-text="r" xlink:href="#font_1_7" transform="matrix(8.7992,0,0,-8.8033,106.088,85.9156)" fill="#040707"/>
<use data-text="e" xlink:href="#font_1_3" transform="matrix(8.7992,0,0,-8.8033,109.1466,85.9156)" fill="#040707"/>
<use data-text="l" xlink:href="#font_1_8" transform="matrix(8.7992,0,0,-8.8033,113.61395,85.9156)" fill="#040707"/>
<use data-text="u" xlink:href="#font_1_9" transform="matrix(8.7992,0,0,-8.8033,115.61665,85.9156)" fill="#040707"/>
<path transform="matrix(1,0,0,-1,106.557,12.788994)" stroke-width=".734" stroke-linecap="round" stroke-linejoin="round" fill="none" stroke="#040707" d="M0 0C41.552 0 48.243-16.316 45.895-38.852 44.721-49.299 41.67-61.036 3.287-61.623"/>
<path transform="matrix(1,0,0,-1,106.557,74.412998)" d="M0 0 4.343-2.113C3.639-.822 3.639 .822 4.343 2.113L0 0" fill="#040707" fill-rule="evenodd"/>
<path transform="matrix(1,0,0,-1,102.214,12.788994)" stroke-width=".734" stroke-linecap="round" stroke-linejoin="round" fill="none" stroke="#040707" d="M0 0H4.343"/>
<use data-text="F" xlink:href="#font_3_1" transform="matrix(9.963,0,0,-9.963,49.8265,79.701)" fill="#231f20"/>
<use data-text="(" xlink:href="#font_4_1" transform="matrix(9.963,0,0,-9.963,56.9899,79.701)" fill="#231f20"/>
<use data-text="x" xlink:href="#font_5_1" transform="matrix(9.963,0,0,-9.963,60.85554,79.701)" fill="#231f20"/>
<use data-text=")" xlink:href="#font_4_2" transform="matrix(9.963,0,0,-9.963,66.89212,79.701)" fill="#231f20"/>
<use data-text="&#xfffd;" xlink:href="#font_6_1" transform="matrix(9.963,0,0,-9.963,70.75777,79.701)" fill="#231f20"/>
<use data-text="+" xlink:href="#font_4_3" transform="matrix(9.963,0,0,-9.963,73.01937,79.701)" fill="#231f20"/>
<use data-text="&#xfffd;" xlink:href="#font_6_1" transform="matrix(9.963,0,0,-9.963,80.75863,79.701)" fill="#231f20"/>
<use data-text="x" xlink:href="#font_5_1" transform="matrix(9.963,0,0,-9.963,83.02023,79.701)" fill="#231f20"/>
<use data-text="x" xlink:href="#font_5_1" transform="matrix(9.963,0,0,-9.963,88.61845,13.2976)" fill="#231f20"/>
<use data-text="F" xlink:href="#font_3_1" transform="matrix(9.963,0,0,-9.963,40.51409,44.126115)" fill="#231f20"/>
<use data-text="(" xlink:href="#font_4_1" transform="matrix(9.963,0,0,-9.963,47.67749,44.126115)" fill="#231f20"/>
<use data-text="x" xlink:href="#font_5_1" transform="matrix(9.963,0,0,-9.963,51.543134,44.126115)" fill="#231f20"/>
<use data-text=")" xlink:href="#font_4_2" transform="matrix(9.963,0,0,-9.963,57.579717,44.126115)" fill="#231f20"/>
<use data-text="x" xlink:href="#font_5_1" transform="matrix(9.963,0,0,-9.963,166.61779,49.292928)" fill="#231f20"/>
</svg>
